<svg width="156" height="39" viewBox="0 0 156 39" fill="none" xmlns="http://www.w3.org/2000/svg">
<path d="M138.229 -4C122.694 -4 107.205 -4 91.67 -4C96.1468 6.87865 101.832 17.0858 109.219 26.2632C113.248 31.322 117.815 35.9331 122.112 40.7681C129.723 40.7681 137.333 40.7681 144.944 40.7681C148.123 35.3064 151.391 29.8895 154.569 24.4277C156.897 20.4434 156.36 16.7276 153.137 13.4596C152.107 12.3851 150.943 11.445 149.958 10.3258C146.018 5.53561 142.124 0.745419 138.229 -4Z" fill="#12C35A"/>
<path d="M70.1814 -4C59.3027 -4 48.3793 -4 37.5006 -4C39.8733 6.07282 43.992 15.4294 49.8119 23.8905C53.841 29.7551 58.5864 35.1721 63.0185 40.7681C69.4203 40.7681 75.8669 40.7681 82.2687 40.7681C84.3728 37.0076 86.4769 33.2918 88.5363 29.4865C90.4613 25.9946 89.9689 23.8458 87.238 20.8911C83.7013 17.0858 79.9408 13.37 77.0309 9.16182C74.2553 5.08792 72.4198 0.387274 70.1814 -4Z" fill="#12C35A"/>
<path d="M15.5643 40.7681C21.3841 40.7681 27.204 40.7681 33.0238 40.7681C33.7849 39.246 34.546 37.7239 35.307 36.2018C36.471 33.829 36.2024 32.2622 34.2326 30.4267C24.3388 21.0701 19.4591 9.6095 19.5934 -4C12.7439 -4 5.84961 -4 -0.999912 -4C-0.596996 0.521579 -0.462685 5.04316 0.298374 9.51997C2.35771 21.3387 7.6851 31.6802 15.5643 40.7681Z" fill="#12C35A"/>
</svg>
