<svg width="156" height="39" viewBox="0 0 156 39" fill="none" xmlns="http://www.w3.org/2000/svg">
<path d="M17.7712 -4C33.3057 -4 48.7955 -4 64.33 -4C59.8532 6.87865 54.1677 17.0858 46.7809 26.2632C42.7518 31.322 38.1854 35.9331 33.8877 40.7681C26.2771 40.7681 18.6665 40.7681 11.056 40.7681C7.87744 35.3064 4.60937 29.8895 1.43083 24.4277C-0.897111 20.4434 -0.359894 16.7276 2.86341 13.4596C3.89308 12.3851 5.05705 11.445 6.04194 10.3258C9.98154 5.53561 13.8764 0.745419 17.7712 -4Z" fill="#12C35A"/>
<path d="M85.8185 -4C96.6972 -4 107.621 -4 118.499 -4C116.127 6.07282 112.008 15.4294 106.188 23.8905C102.159 29.7551 97.4135 35.1721 92.9814 40.7681C86.5796 40.7681 80.133 40.7681 73.7311 40.7681C71.627 37.0076 69.5229 33.2918 67.4636 29.4865C65.5386 25.9946 66.031 23.8458 68.7619 20.8911C72.2986 17.0858 76.0591 13.37 78.969 9.16182C81.7446 5.08792 83.5801 0.387274 85.8185 -4Z" fill="#12C35A"/>
<path d="M140.436 40.7681C134.616 40.7681 128.796 40.7681 122.976 40.7681C122.215 39.246 121.454 37.7239 120.693 36.2018C119.529 33.829 119.798 32.2622 121.768 30.4267C131.661 21.0701 136.541 9.6095 136.407 -4C143.256 -4 150.151 -4 157 -4C156.597 0.521579 156.463 5.04316 155.702 9.51997C153.642 21.3387 148.315 31.6802 140.436 40.7681Z" fill="#12C35A"/>
</svg>
