<svg width="76" height="41" viewBox="0 0 76 41" fill="none" xmlns="http://www.w3.org/2000/svg">
<path d="M17.7722 0C27.6788 0 37.6262 0 47.5329 0C45.3722 9.17282 41.6215 17.6934 36.3216 25.3985C32.6525 30.7392 28.3311 35.6721 24.295 40.7681C18.4652 40.7681 12.5946 40.7681 6.76476 40.7681C4.84866 37.3436 2.93256 33.9598 1.05723 30.4945C-0.695799 27.3146 -0.247346 25.3578 2.23951 22.6671C5.46019 19.2018 8.8847 15.818 11.5346 11.9858C14.0623 8.27592 15.7337 3.99527 17.7722 0Z" fill="#12C35A"/>
<path d="M67.5092 40.7681C62.2094 40.7681 56.9095 40.7681 51.6097 40.7681C50.9166 39.382 50.2235 37.9959 49.5305 36.6098C48.4705 34.4491 48.7151 33.0222 50.5089 31.3507C59.5187 22.8301 63.9624 12.3935 63.8401 0C70.0776 0 76.3559 0 82.5934 0C82.2265 4.11758 82.1042 8.23516 81.4111 12.312C79.5358 23.0747 74.6844 32.4922 67.5092 40.7681Z" fill="#12C35A"/>
</svg>
