<svg width="78" height="41" viewBox="0 0 78 41" fill="none" xmlns="http://www.w3.org/2000/svg">
<path d="M59.8205 0C49.9139 0 39.9664 0 30.0598 0C32.2205 9.17282 35.9712 17.6934 41.271 25.3985C44.9401 30.7392 49.2616 35.6721 53.2976 40.7681C59.1274 40.7681 64.998 40.7681 70.8279 40.7681C72.744 37.3436 74.6601 33.9598 76.5354 30.4945C78.2885 27.3146 77.84 25.3578 75.3531 22.6671C72.1325 19.2018 68.7079 15.818 66.058 11.9858C63.5304 8.27592 61.8589 3.99527 59.8205 0Z" fill="#12C35A"/>
<path d="M10.0834 40.7681C15.3833 40.7681 20.6831 40.7681 25.983 40.7681C26.6761 39.382 27.3691 37.9959 28.0622 36.6098C29.1221 34.4491 28.8775 33.0222 27.0837 31.3507C18.074 22.8301 13.6303 12.3935 13.7526 0C7.51505 0 1.23676 0 -5.00076 0C-4.63385 4.11758 -4.51154 8.23516 -3.81848 12.312C-1.94315 23.0747 2.90825 32.4922 10.0834 40.7681Z" fill="#12C35A"/>
</svg>
