<svg width="141" height="48" viewBox="0 0 141 48" fill="none" xmlns="http://www.w3.org/2000/svg">
<path d="M0 1.72928V44.3421C0 44.852 0.421251 45.2733 0.931185 45.2733H43.5218C44.0318 45.2733 44.453 44.852 44.453 44.3421V1.72928C44.453 1.21935 44.0318 0.798096 43.5218 0.798096H0.931185C0.421251 0.798096 0 1.21935 0 1.72928Z" fill="#12C35A"/>
<path d="M57.1124 39.664C57.4671 39.8413 57.7332 40.0852 57.9549 40.4178C58.1544 40.7504 58.2653 41.1494 58.2653 41.615C58.2653 42.0806 58.1544 42.4797 57.9549 42.7901C57.7554 43.1227 57.4671 43.3665 57.0902 43.5439C56.7355 43.7213 56.3142 43.81 55.8265 43.81C55.4052 43.81 54.984 43.7435 54.5406 43.5883V45.2067C54.5406 45.2954 54.4962 45.3398 54.4075 45.3398H53.3877C53.299 45.3398 53.2546 45.2954 53.2546 45.2067V39.5531C53.2546 39.4644 53.299 39.4201 53.3877 39.4201H55.893C56.3586 39.3979 56.7577 39.4866 57.1124 39.664ZM56.669 42.3023C56.8685 42.125 56.9794 41.8811 56.9794 41.5929C56.9794 41.2825 56.8907 41.0608 56.6912 40.8834C56.4916 40.706 56.2477 40.6173 55.9152 40.6173H54.5406V42.3245C54.9618 42.4797 55.3831 42.5684 55.8265 42.5684C56.2034 42.5684 56.4694 42.4797 56.669 42.3023Z" fill="white"/>
<path d="M63.3205 40.7949C63.3427 40.8171 63.3648 40.8392 63.3648 40.8836V45.1848C63.3648 45.2735 63.3205 45.3178 63.2318 45.3178H62.2563C62.1676 45.3178 62.1233 45.2735 62.1233 45.1848V44.9631C61.7907 45.2513 61.3694 45.4065 60.8595 45.4065C60.4161 45.4065 60.017 45.2956 59.6623 45.0961C59.3075 44.8744 59.0415 44.5861 58.8419 44.2314C58.6424 43.8767 58.5537 43.4776 58.5537 43.0342C58.5537 42.6129 58.6424 42.2138 58.8419 41.8369C59.0415 41.4822 59.3075 41.194 59.6623 40.9723C60.017 40.7506 60.4161 40.6619 60.8595 40.6619C61.3694 40.6619 61.7907 40.8171 62.1233 41.1053V40.8836C62.1233 40.8392 62.1454 40.8171 62.1676 40.7949C62.1898 40.7727 62.2341 40.7506 62.2563 40.7506H63.2318C63.254 40.7506 63.2983 40.7506 63.3205 40.7949ZM61.7907 43.8988C62.0124 43.6771 62.1233 43.3889 62.1233 43.0342C62.1233 42.6794 62.0124 42.3912 61.7907 42.1695C61.569 41.9478 61.2808 41.8369 60.9704 41.8369C60.66 41.8369 60.3717 41.9478 60.15 42.1695C59.9283 42.3912 59.8175 42.6794 59.8175 43.0342C59.8175 43.3889 59.9283 43.6771 60.15 43.8988C60.3717 44.1206 60.66 44.2314 60.9704 44.2314C61.2808 44.2314 61.5468 44.1206 61.7907 43.8988Z" fill="white"/>
<path d="M67.2887 40.8834L67.1779 41.8146C67.1779 41.8589 67.1557 41.9032 67.1114 41.9254C67.067 41.9476 67.0449 41.9476 66.9783 41.9254C66.8897 41.9032 66.7345 41.8811 66.5793 41.8811C66.3354 41.8811 66.0915 41.9476 65.8476 42.0584C65.6259 42.1693 65.4485 42.3245 65.3155 42.5019V45.1624C65.3155 45.2511 65.2712 45.3176 65.1603 45.3176H64.207C64.1183 45.3176 64.0518 45.2733 64.0518 45.1624V40.9055C64.0518 40.8169 64.0961 40.7504 64.207 40.7504H65.1603C65.249 40.7504 65.3155 40.7947 65.3155 40.9055V41.3268C65.4929 41.1273 65.7146 40.9721 65.9585 40.8612C66.2245 40.7504 66.4684 40.6838 66.7566 40.6838C66.9118 40.6838 67.0449 40.706 67.1779 40.7282C67.2666 40.7282 67.3109 40.7725 67.2887 40.8834Z" fill="white"/>
<path d="M71.2348 44.8743C71.2348 44.8964 71.2126 44.9408 71.1905 44.9629C70.747 45.2512 70.2814 45.3842 69.7937 45.3842C69.1729 45.3842 68.7073 45.229 68.4191 44.8964C68.1308 44.5639 67.9978 44.1426 67.9978 43.6105V41.8146H67.6431C67.5544 41.8146 67.5322 41.7703 67.5322 41.6816V40.8391C67.5322 40.7504 67.5766 40.7061 67.6431 40.7061H67.9978V39.9079C67.9978 39.8192 68.0422 39.7749 68.1087 39.7749H69.1285C69.2172 39.7749 69.2394 39.8192 69.2394 39.9079V40.7504H70.6584C70.747 40.7504 70.7692 40.7948 70.7692 40.8835V41.726C70.7692 41.8146 70.7249 41.859 70.6584 41.859H69.2394V43.5218C69.2394 43.7657 69.2837 43.9652 69.3724 44.0761C69.4611 44.2091 69.6163 44.2535 69.838 44.2535C70.1262 44.2535 70.4145 44.1648 70.6805 43.9874C70.7027 43.9652 70.7249 43.9652 70.7249 43.9652C70.7692 43.9652 70.7914 43.9874 70.8135 44.0318L71.2126 44.8077C71.2348 44.8299 71.2348 44.8743 71.2348 44.8743Z" fill="white"/>
<path d="M76.6231 40.972C77 41.1716 77.266 41.4598 77.4656 41.8367C77.6651 42.1914 77.7538 42.5905 77.7538 43.0339C77.7538 43.4774 77.6651 43.8764 77.4656 44.2312C77.266 44.5859 76.9778 44.8741 76.6231 45.0958C76.2462 45.2954 75.8249 45.4062 75.3593 45.4062C74.8937 45.4062 74.4725 45.2954 74.0956 45.0958C73.7187 44.8963 73.4526 44.6081 73.2531 44.2312C73.0535 43.8764 72.9648 43.4774 72.9648 43.0339C72.9648 42.5905 73.0535 42.1914 73.2531 41.8367C73.4526 41.482 73.7408 41.1937 74.0956 40.972C74.4725 40.7725 74.8937 40.6616 75.3593 40.6616C75.8249 40.6616 76.2462 40.7725 76.6231 40.972ZM74.5168 43.8986C74.7385 44.1203 75.0046 44.2312 75.3593 44.2312C75.7141 44.2312 75.9801 44.1203 76.2018 43.8986C76.4235 43.6769 76.5344 43.3887 76.5344 43.0339C76.5344 42.6792 76.4235 42.391 76.2018 42.1693C75.9801 41.9475 75.7141 41.8367 75.3593 41.8367C75.0046 41.8367 74.7385 41.9475 74.5168 42.1693C74.2951 42.391 74.1843 42.6792 74.1843 43.0339C74.1843 43.3887 74.2951 43.6769 74.5168 43.8986Z" fill="white"/>
<path d="M79.9937 40.3514C79.905 40.4622 79.8606 40.6396 79.8606 40.8613V40.9278H81.2796C81.3018 40.9278 81.3461 40.95 81.3683 40.9721C81.3904 40.9943 81.4126 41.0387 81.4126 41.0608V41.9033C81.4126 41.9255 81.3904 41.9698 81.3683 41.992C81.3461 42.0142 81.3239 42.0364 81.2796 42.0364H79.8606V45.1846C79.8606 45.229 79.8385 45.2512 79.8163 45.2733C79.7941 45.2955 79.7498 45.3177 79.7276 45.3177H78.7521C78.7299 45.3177 78.6856 45.2955 78.6634 45.2733C78.6412 45.2512 78.619 45.229 78.619 45.1846V42.0364H77.9983C77.9761 42.0364 77.9317 42.0142 77.9096 41.992C77.8874 41.9698 77.8652 41.9477 77.8652 41.9033V41.0608C77.8652 41.0387 77.8874 40.9943 77.9096 40.9721C77.9317 40.95 77.9539 40.9278 77.9983 40.9278H78.619V40.7948C78.619 40.4622 78.6856 40.174 78.8186 39.9079C78.9516 39.6419 79.1733 39.4423 79.4394 39.2871C79.7054 39.1319 80.038 39.0654 80.4149 39.0654C80.8362 39.0654 81.2131 39.1319 81.5456 39.2871C81.6121 39.3093 81.6343 39.3758 81.6121 39.4423L81.3683 40.2627C81.3461 40.3514 81.3017 40.3735 81.2131 40.3514C80.9692 40.2627 80.7253 40.2183 80.4814 40.2183C80.2597 40.174 80.0823 40.2405 79.9937 40.3514Z" fill="white"/>
<path d="M86.7553 44.8743C86.7553 44.8964 86.7331 44.9408 86.711 44.9629C86.2675 45.2512 85.8019 45.3842 85.3142 45.3842C84.6934 45.3842 84.2278 45.229 83.9396 44.8964C83.6514 44.5639 83.5183 44.1426 83.5183 43.6105V41.8146H83.1636C83.0749 41.8146 83.0527 41.7703 83.0527 41.6816V40.8391C83.0527 40.7504 83.0971 40.7061 83.1636 40.7061H83.5183V39.9079C83.5183 39.8192 83.5627 39.7749 83.6292 39.7749H84.649C84.7377 39.7749 84.7599 39.8192 84.7599 39.9079V40.7504H86.1789C86.2675 40.7504 86.2897 40.7948 86.2897 40.8835V41.726C86.2897 41.8146 86.2454 41.859 86.1789 41.859H84.7599V43.5218C84.7599 43.7657 84.8042 43.9652 84.8929 44.0761C84.9816 44.2091 85.1368 44.2535 85.3585 44.2535C85.6467 44.2535 85.935 44.1648 86.201 43.9874C86.2232 43.9652 86.2454 43.9652 86.2454 43.9652C86.2897 43.9652 86.3119 43.9874 86.3341 44.0318L86.7331 44.8077C86.7553 44.8299 86.7553 44.8743 86.7553 44.8743Z" fill="white"/>
<path d="M90.9016 41.1718C91.2341 41.5044 91.4115 41.97 91.4115 42.5686V45.1626C91.4115 45.2513 91.3672 45.3178 91.2563 45.3178H90.303C90.2143 45.3178 90.1478 45.2735 90.1478 45.1626V42.7238C90.1478 42.103 89.8374 41.8148 89.2166 41.8148C89.0392 41.8148 88.8397 41.8591 88.6623 41.9478C88.4849 42.0365 88.3297 42.1473 88.2189 42.2804V45.1848C88.2189 45.2735 88.1745 45.3178 88.0858 45.3178H87.1103C87.0216 45.3178 86.9773 45.2735 86.9773 45.1848V39.2651C86.9773 39.1764 87.0216 39.1321 87.1103 39.1321H88.0858C88.1745 39.1321 88.2189 39.1764 88.2189 39.2651V41.1718C88.3962 41.0166 88.5958 40.9058 88.8397 40.8171C89.0614 40.7284 89.3274 40.6841 89.5713 40.6841C90.1478 40.6619 90.569 40.8393 90.9016 41.1718Z" fill="white"/>
<path d="M96.377 44.5639C96.3992 44.6083 96.4213 44.6526 96.4213 44.6526C96.4213 44.6748 96.3992 44.7191 96.3327 44.7635C96.0001 44.9852 95.6675 45.1625 95.3571 45.2512C95.0467 45.3399 94.7363 45.3843 94.3816 45.3843C93.8938 45.3843 93.4504 45.2734 93.0735 45.0739C92.6966 44.8743 92.4084 44.5861 92.2088 44.2092C92.0093 43.8545 91.8984 43.4554 91.8984 43.012C91.8984 42.5464 91.9871 42.1473 92.1867 41.7925C92.3862 41.4378 92.6523 41.1496 93.007 40.95C93.3617 40.7505 93.7608 40.6396 94.2264 40.6396C94.9359 40.6396 95.468 40.8614 95.8671 41.2826C96.244 41.7039 96.4435 42.2803 96.4435 43.012C96.4435 43.2337 96.3548 43.3445 96.1996 43.3445H93.1844C93.2509 43.6106 93.3839 43.8101 93.5834 43.9875C93.783 44.1648 94.049 44.2314 94.3594 44.2314C94.559 44.2314 94.7585 44.187 94.9802 44.1205C95.2019 44.054 95.4458 43.9431 95.734 43.7879C95.7784 43.7658 95.8227 43.7436 95.8449 43.7436C95.8892 43.7436 95.9336 43.7879 96.0001 43.8766L96.377 44.5639ZM93.6278 41.9034C93.4504 42.0364 93.3174 42.1916 93.2509 42.4133H95.1798C95.0911 41.9477 94.7585 41.7039 94.2042 41.7039C93.9825 41.726 93.8051 41.7925 93.6278 41.9034Z" fill="white"/>
<path d="M104.27 45.2068C104.27 45.2733 104.226 45.2955 104.16 45.2955H103.007C102.94 45.2955 102.896 45.2733 102.851 45.1846L102.497 44.2756C102.098 44.3643 101.699 44.4086 101.255 44.4086C100.812 44.4086 100.39 44.3643 99.9914 44.2756L99.6366 45.2068C99.6145 45.2733 99.548 45.3176 99.4815 45.3176H98.3729C98.3286 45.3176 98.3064 45.2955 98.2842 45.2733C98.262 45.2511 98.262 45.2068 98.2842 45.1624L100.479 39.5088C100.501 39.4423 100.568 39.3979 100.634 39.3979H101.898C101.965 39.3979 102.009 39.4423 102.053 39.5088L104.248 45.1624C104.27 45.1624 104.27 45.1846 104.27 45.2068ZM102.142 43.2557L101.277 40.9278L100.413 43.2557C100.679 43.3001 100.967 43.3222 101.277 43.3222C101.588 43.3222 101.876 43.3001 102.142 43.2557Z" fill="white"/>
<path d="M108.882 39.7084C109.347 39.9745 109.702 40.3514 109.968 40.817C110.234 41.2826 110.345 41.7925 110.345 42.3468C110.345 42.901 110.212 43.411 109.968 43.8766C109.702 44.3422 109.347 44.7191 108.882 44.9851C108.416 45.2512 107.884 45.3842 107.308 45.3842C106.709 45.3842 106.177 45.2512 105.734 44.9851C105.268 44.7191 104.913 44.3422 104.647 43.8766C104.381 43.411 104.27 42.901 104.27 42.3468C104.27 41.7925 104.403 41.2826 104.647 40.817C104.913 40.3514 105.268 39.9745 105.734 39.7084C106.199 39.4424 106.731 39.3093 107.308 39.3093C107.884 39.3093 108.416 39.4424 108.882 39.7084ZM105.756 43.3001C105.911 43.5662 106.11 43.7879 106.399 43.9431C106.665 44.0983 106.975 44.1648 107.308 44.1648C107.64 44.1648 107.951 44.0983 108.217 43.9431C108.483 43.7879 108.704 43.5662 108.86 43.3001C109.015 43.0341 109.081 42.7015 109.081 42.3468C109.081 41.992 109.015 41.6816 108.86 41.3934C108.704 41.1274 108.483 40.9056 108.217 40.7504C107.951 40.5952 107.64 40.5287 107.308 40.5287C106.975 40.5287 106.665 40.6174 106.399 40.7504C106.133 40.9056 105.911 41.1274 105.756 41.3934C105.601 41.6595 105.534 41.992 105.534 42.3468C105.512 42.7015 105.601 43.0119 105.756 43.3001Z" fill="white"/>
<path d="M117.24 39.5311V40.5066C117.24 40.5953 117.196 40.6396 117.107 40.6396H113.981V42.1694C114.247 42.2138 114.535 42.2359 114.89 42.2359C115.134 42.2359 115.333 42.2138 115.533 42.1916C115.732 42.1694 115.954 42.1251 116.198 42.0586C116.331 42.0142 116.42 42.0142 116.464 42.0142C116.486 42.0142 116.531 42.0142 116.553 42.0364C116.575 42.0586 116.597 42.0807 116.597 42.1251L116.752 43.0119V43.0341C116.752 43.0563 116.752 43.0784 116.73 43.1006C116.708 43.1228 116.686 43.1449 116.664 43.1449C116.375 43.2336 116.087 43.3223 115.732 43.3667C115.4 43.411 115.112 43.4332 114.868 43.4332C114.58 43.4332 114.269 43.411 113.959 43.3888V45.2069C113.959 45.2955 113.914 45.3399 113.826 45.3399H112.806C112.717 45.3399 112.673 45.2955 112.673 45.2069V39.5532C112.673 39.4645 112.717 39.4202 112.806 39.4202H117.085C117.196 39.398 117.24 39.4424 117.24 39.5311Z" fill="white"/>
<path d="M122.118 40.7946C122.141 40.8168 122.163 40.839 122.163 40.8833V45.1845C122.163 45.2732 122.118 45.3175 122.03 45.3175H121.054C120.965 45.3175 120.921 45.2732 120.921 45.1845V44.9628C120.589 45.251 120.167 45.4062 119.657 45.4062C119.214 45.4062 118.815 45.2954 118.46 45.0958C118.105 44.8741 117.839 44.5859 117.64 44.2312C117.44 43.8764 117.352 43.4774 117.352 43.0339C117.352 42.6127 117.44 42.2136 117.64 41.8367C117.839 41.482 118.105 41.1937 118.46 40.972C118.815 40.7503 119.214 40.6616 119.657 40.6616C120.167 40.6616 120.589 40.8168 120.921 41.105V40.8833C120.921 40.839 120.943 40.8168 120.965 40.7946C120.988 40.7725 121.032 40.7503 121.054 40.7503H122.03C122.052 40.7503 122.074 40.7503 122.118 40.7946ZM120.566 43.8986C120.788 43.6769 120.899 43.3887 120.899 43.0339C120.899 42.6792 120.788 42.391 120.566 42.1693C120.345 41.9475 120.056 41.8367 119.746 41.8367C119.436 41.8367 119.147 41.9475 118.926 42.1693C118.704 42.391 118.593 42.6792 118.593 43.0339C118.593 43.3887 118.704 43.6769 118.926 43.8986C119.147 44.1203 119.436 44.2312 119.746 44.2312C120.056 44.2312 120.345 44.1203 120.566 43.8986Z" fill="white"/>
<path d="M129.923 41.1718C130.256 41.5043 130.433 41.9699 130.433 42.5686V45.1847C130.433 45.2734 130.389 45.3178 130.3 45.3178H129.325C129.236 45.3178 129.192 45.2734 129.192 45.1847V42.7237C129.192 42.4134 129.125 42.1916 128.97 42.0364C128.815 41.8812 128.615 41.8147 128.349 41.8147C128.149 41.8147 127.95 41.8591 127.75 41.9478C127.551 42.0364 127.373 42.1473 127.24 42.2803C127.263 42.4134 127.263 42.5242 127.263 42.5907V45.2069C127.263 45.2956 127.218 45.3399 127.13 45.3399H126.154C126.065 45.3399 126.021 45.2956 126.021 45.2069V42.7459C126.021 42.4355 125.955 42.2138 125.799 42.0586C125.644 41.9034 125.445 41.8369 125.179 41.8369C124.979 41.8369 124.779 41.8812 124.58 41.9478C124.38 42.0364 124.225 42.1251 124.092 42.2582V45.2069C124.092 45.2956 124.048 45.3399 123.959 45.3399H122.984C122.895 45.3399 122.851 45.2956 122.851 45.2069V40.9057C122.851 40.817 122.895 40.7727 122.984 40.7727H123.959C124.048 40.7727 124.092 40.817 124.092 40.9057V41.1939C124.27 41.0387 124.469 40.9279 124.713 40.8392C124.935 40.7505 125.201 40.7062 125.445 40.7062C125.755 40.7062 126.043 40.7727 126.287 40.8835C126.531 40.9944 126.753 41.1718 126.908 41.3935C127.107 41.1939 127.351 41.0387 127.64 40.9057C127.928 40.7727 128.26 40.7062 128.615 40.7062C129.147 40.6618 129.591 40.8392 129.923 41.1718Z" fill="white"/>
<path d="M132.273 39.0877C132.406 39.2207 132.472 39.3981 132.472 39.6198C132.472 39.8415 132.406 40.0189 132.273 40.1519C132.14 40.2849 131.962 40.3736 131.74 40.3736C131.519 40.3736 131.341 40.3071 131.208 40.1519C131.075 40.0189 131.009 39.8415 131.009 39.6198C131.009 39.3981 131.075 39.2207 131.208 39.0877C131.341 38.9547 131.519 38.866 131.74 38.866C131.94 38.8881 132.14 38.9547 132.273 39.0877ZM132.339 40.8835V45.1847C132.339 45.2734 132.295 45.3177 132.206 45.3177H131.23C131.142 45.3177 131.097 45.2734 131.097 45.1847V40.8835C131.097 40.7948 131.142 40.7505 131.23 40.7505H132.206C132.295 40.7505 132.339 40.7948 132.339 40.8835Z" fill="white"/>
<path d="M134.268 39.2649V45.1845C134.268 45.2732 134.224 45.3176 134.135 45.3176H133.159C133.071 45.3176 133.026 45.2732 133.026 45.1845V39.2649C133.026 39.1762 133.071 39.1318 133.159 39.1318H134.135C134.224 39.1318 134.268 39.1762 134.268 39.2649Z" fill="white"/>
<path d="M139.301 40.9056V44.9629C139.301 45.7389 139.079 46.3375 138.614 46.7588C138.148 47.18 137.528 47.4017 136.729 47.4017C136.264 47.4017 135.843 47.3352 135.466 47.18C135.089 47.0248 134.69 46.7809 134.246 46.4484C134.202 46.4262 134.18 46.3819 134.18 46.3375C134.18 46.3153 134.202 46.271 134.224 46.2488L134.756 45.495C134.8 45.4507 134.823 45.4285 134.867 45.4285C134.911 45.4285 134.933 45.4507 134.978 45.4728C135.31 45.7389 135.621 45.9163 135.887 46.0493C136.153 46.1823 136.441 46.2267 136.729 46.2267C137.106 46.2267 137.439 46.1158 137.683 45.9163C137.927 45.6945 138.06 45.362 138.06 44.8742V44.5195C137.882 44.6747 137.683 44.7855 137.439 44.8742C137.217 44.9629 136.951 45.0072 136.707 45.0072C136.175 45.0072 135.732 44.8299 135.399 44.4973C135.067 44.1647 134.889 43.6991 134.889 43.1005V40.8613C134.889 40.7726 134.933 40.7061 135.044 40.7061H135.998C136.086 40.7061 136.153 40.7504 136.153 40.8613V42.9453C136.153 43.5661 136.463 43.8543 137.062 43.8543C137.239 43.8543 137.439 43.81 137.616 43.7213C137.794 43.6326 137.949 43.5218 138.06 43.3888V40.8613C138.06 40.7726 138.104 40.7061 138.215 40.7061H139.168C139.257 40.7504 139.301 40.7947 139.301 40.9056Z" fill="white"/>
<path d="M76.6006 7.56034C77.7092 8.66889 78.2635 10.1987 78.2635 12.1719V20.8186C78.2635 21.1069 78.1304 21.2399 77.8422 21.2399H74.5831C74.2948 21.2399 74.1618 21.1069 74.1618 20.8186V12.704C74.1618 11.7063 73.9179 10.9303 73.4302 10.4204C72.9424 9.91047 72.2773 9.64442 71.4126 9.64442C70.7475 9.64442 70.0823 9.77745 69.4172 10.0435C68.7521 10.3096 68.1978 10.6643 67.7544 11.1077C67.7987 11.5511 67.8209 11.9059 67.8209 12.1719V20.8186C67.8209 21.1069 67.6879 21.2399 67.3996 21.2399H64.1405C63.8523 21.2399 63.7192 21.1069 63.7192 20.8186V12.704C63.7192 11.7063 63.4754 10.9303 62.9876 10.4204C62.4998 9.91047 61.8347 9.64442 60.97 9.64442C60.3049 9.64442 59.6619 9.77745 59.019 10.0435C58.376 10.3096 57.8217 10.6421 57.4005 11.0634V20.8408C57.4005 21.129 57.2675 21.2621 56.9792 21.2621H53.7201C53.4319 21.2621 53.2988 21.129 53.2988 20.8408V6.60698C53.2988 6.31876 53.4319 6.18573 53.7201 6.18573H56.9792C57.2675 6.18573 57.4005 6.31876 57.4005 6.60698V7.53817C57.9769 7.0504 58.6642 6.67349 59.418 6.3631C60.1719 6.0527 60.9922 5.91968 61.8569 5.91968C62.8767 5.91968 63.8079 6.11922 64.6504 6.49613C65.4929 6.87303 66.1581 7.44948 66.6902 8.18113C67.3331 7.53817 68.1313 7.00606 69.1068 6.56264C70.0823 6.14139 71.1466 5.91968 72.2994 5.91968C74.051 5.91968 75.4921 6.45178 76.6006 7.56034Z" fill="white"/>
<path d="M91.4999 6.91729C92.7194 7.60459 93.6505 8.55795 94.2935 9.75518C94.9365 10.9524 95.269 12.2827 95.269 13.7238C95.269 15.1649 94.9365 16.4952 94.2935 17.6924C93.6505 18.8897 92.6972 19.843 91.4999 20.5303C90.2805 21.2176 88.8838 21.5724 87.3318 21.5724C85.7576 21.5724 84.383 21.2176 83.1636 20.5303C81.9442 19.843 81.013 18.8897 80.3701 17.6924C79.7271 16.4952 79.3945 15.1649 79.3945 13.7238C79.3945 12.2827 79.7271 10.9524 80.3701 9.75518C81.013 8.55795 81.9664 7.60459 83.1636 6.91729C84.383 6.22998 85.7798 5.87524 87.3318 5.87524C88.8838 5.87524 90.2805 6.22998 91.4999 6.91729ZM84.5382 16.606C85.2477 17.3377 86.1789 17.7146 87.3318 17.7146C88.4847 17.7146 89.4159 17.3377 90.1253 16.606C90.8348 15.8744 91.1895 14.921 91.1895 13.7238C91.1895 12.5487 90.8348 11.5732 90.1253 10.8416C89.4159 10.1099 88.4847 9.73301 87.3318 9.73301C86.1789 9.73301 85.2477 10.1099 84.5382 10.8416C83.8287 11.5732 83.474 12.5266 83.474 13.7238C83.474 14.8989 83.8287 15.8744 84.5382 16.606Z" fill="white"/>
<path d="M108.638 6.93953C109.813 7.64901 110.7 8.60236 111.343 9.7996C111.986 10.9968 112.318 12.3049 112.318 13.7239C112.318 15.1428 111.986 16.4731 111.343 17.6482C110.7 18.8454 109.791 19.7988 108.638 20.5082C107.463 21.2177 106.155 21.5724 104.669 21.5724C102.984 21.5724 101.587 21.0847 100.501 20.1313V20.8408C100.501 21.129 100.368 21.2621 100.08 21.2621H96.8207C96.5324 21.2621 96.3994 21.129 96.3994 20.8408V1.24156C96.3994 0.953339 96.5324 0.820312 96.8207 0.820312H100.08C100.368 0.820312 100.501 0.953339 100.501 1.24156V7.31644C101.587 6.34091 102.984 5.87532 104.669 5.87532C106.155 5.87532 107.485 6.23006 108.638 6.93953ZM107.108 16.6061C107.862 15.8523 108.217 14.8989 108.217 13.7239C108.217 12.5488 107.84 11.5955 107.108 10.8416C106.354 10.0878 105.445 9.71092 104.359 9.71092C103.272 9.71092 102.363 10.0878 101.61 10.8416C100.856 11.5955 100.501 12.5488 100.501 13.7239C100.501 14.8989 100.878 15.8523 101.61 16.6061C102.363 17.3599 103.272 17.7368 104.359 17.7368C105.445 17.7368 106.354 17.3599 107.108 16.6061Z" fill="white"/>
<path d="M117.44 0.709475C117.884 1.17507 118.128 1.77369 118.128 2.48316C118.128 3.19264 117.906 3.76908 117.44 4.25685C116.997 4.72244 116.398 4.96632 115.644 4.96632C114.891 4.96632 114.292 4.72244 113.849 4.25685C113.405 3.79126 113.161 3.19264 113.161 2.48316C113.161 1.77369 113.383 1.19724 113.849 0.709475C114.292 0.243882 114.891 0 115.644 0C116.376 0 116.975 0.243882 117.44 0.709475ZM117.684 6.60698V20.8408C117.684 21.129 117.551 21.2621 117.263 21.2621H114.004C113.716 21.2621 113.582 21.129 113.582 20.8408V6.60698C113.582 6.31876 113.716 6.18573 114.004 6.18573H117.263C117.551 6.18573 117.684 6.31876 117.684 6.60698Z" fill="white"/>
<path d="M123.448 1.24156V20.8408C123.448 21.129 123.315 21.2621 123.027 21.2621H119.768C119.479 21.2621 119.346 21.129 119.346 20.8408V1.24156C119.346 0.953339 119.479 0.820312 119.768 0.820312H123.027C123.315 0.820313 123.448 0.953339 123.448 1.24156Z" fill="white"/>
<path d="M139.301 18.7788C139.389 18.934 139.412 19.0449 139.412 19.0892C139.412 19.2001 139.323 19.3109 139.145 19.4883C138.015 20.2421 136.951 20.7964 135.953 21.1068C134.955 21.4172 133.869 21.5724 132.694 21.5724C131.053 21.5724 129.612 21.2176 128.392 20.5303C127.173 19.843 126.22 18.8897 125.555 17.6924C124.889 16.4952 124.557 15.1649 124.557 13.7238C124.557 12.194 124.867 10.8416 125.532 9.64433C126.175 8.46926 127.084 7.53808 128.237 6.87294C129.412 6.20781 130.743 5.87524 132.272 5.87524C134.6 5.87524 136.418 6.58472 137.682 8.02584C138.968 9.44479 139.589 11.3515 139.589 13.7238C139.589 14.4555 139.301 14.8102 138.746 14.8102H128.769C128.969 15.6527 129.412 16.3622 130.077 16.9164C130.743 17.4707 131.607 17.7368 132.627 17.7368C133.292 17.7368 133.98 17.6259 134.711 17.4042C135.443 17.1825 136.263 16.8056 137.194 16.2957C137.327 16.207 137.46 16.1848 137.549 16.1848C137.704 16.1848 137.86 16.3178 138.037 16.606L139.301 18.7788ZM130.166 10.0212C129.568 10.4425 129.146 10.9968 128.925 11.7284H135.31C134.999 10.1764 133.935 9.40045 132.073 9.40045C131.386 9.40045 130.743 9.62216 130.166 10.0212Z" fill="white"/>
<path d="M59.3301 26.8715C59.9065 27.2262 60.3499 27.6918 60.6825 28.2904C60.9929 28.889 61.1702 29.532 61.1702 30.2415C61.1702 30.9509 61.0151 31.5939 60.6825 32.1925C60.3721 32.7911 59.9065 33.2567 59.3301 33.6115C58.7536 33.9662 58.0885 34.1436 57.3568 34.1436C56.5143 34.1436 55.827 33.8997 55.2949 33.4341V36.7819C55.2949 36.8484 55.2727 36.8928 55.2284 36.9371C55.1841 36.9815 55.1397 37.0036 55.0954 37.0036H53.4769C53.4325 37.0036 53.3882 36.9815 53.3439 36.9371C53.2995 36.8928 53.2773 36.8484 53.2773 36.7819V26.7606C53.2773 26.6941 53.2995 26.6498 53.3439 26.6054C53.3882 26.5611 53.4325 26.5389 53.4769 26.5389H55.0954C55.1397 26.5389 55.1841 26.5611 55.2284 26.6054C55.2727 26.6498 55.2949 26.6941 55.2949 26.7606V27.1153C55.827 26.6276 56.5143 26.4059 57.3568 26.4059C58.0885 26.3394 58.7536 26.5167 59.3301 26.8715ZM58.5762 31.6382C58.9531 31.2613 59.1305 30.7957 59.1305 30.2193C59.1305 29.6428 58.9531 29.1773 58.5762 28.8003C58.1993 28.4234 57.7559 28.2461 57.2238 28.2461C56.6917 28.2461 56.2261 28.4234 55.8714 28.8003C55.4945 29.1773 55.3171 29.6428 55.3171 30.2193C55.3171 30.7957 55.4945 31.2613 55.8714 31.6382C56.2483 32.0152 56.6917 32.1925 57.2238 32.1925C57.7559 32.1925 58.1993 32.0152 58.5762 31.6382Z" fill="#12C35A"/>
<path d="M68.065 27.1819C68.6193 27.7361 68.8853 28.49 68.8853 29.4655V33.7002C68.8853 33.8554 68.7967 33.944 68.6415 33.944H67.0895C66.9343 33.944 66.8456 33.8554 66.8456 33.7002V29.7094C66.8456 28.7117 66.3357 28.2017 65.338 28.2017C65.0276 28.2017 64.7393 28.2682 64.4511 28.4234C64.1629 28.5565 63.919 28.756 63.7195 28.9777V33.7445C63.7195 33.8775 63.653 33.944 63.5199 33.944H61.9014C61.7684 33.944 61.7019 33.8775 61.7019 33.7445V24.0557C61.7019 23.9227 61.7684 23.8562 61.9014 23.8562H63.5199C63.653 23.8562 63.7195 23.9227 63.7195 24.0557V27.1819C64.0077 26.938 64.3403 26.7384 64.7172 26.6054C65.0941 26.4502 65.4932 26.3837 65.9144 26.3837C66.8013 26.3615 67.5107 26.6276 68.065 27.1819Z" fill="#12C35A"/>
<path d="M75.4488 26.8493C76.0474 27.1819 76.513 27.6696 76.8456 28.2461C77.1781 28.8447 77.3333 29.4876 77.3333 30.1971C77.3333 30.9066 77.1781 31.5717 76.8456 32.1482C76.513 32.7468 76.0696 33.2124 75.4488 33.545C74.8502 33.8775 74.1629 34.0549 73.3869 34.0549C72.6109 34.0549 71.9236 33.8775 71.325 33.545C70.7264 33.2124 70.2608 32.7246 69.9282 32.1482C69.5956 31.5496 69.4404 30.9066 69.4404 30.1971C69.4404 29.4876 69.5956 28.8225 69.9282 28.2461C70.2608 27.6474 70.7042 27.1819 71.325 26.8493C71.9236 26.5167 72.6109 26.3394 73.3869 26.3394C74.1407 26.3394 74.828 26.5167 75.4488 26.8493ZM71.9901 31.6382C72.3448 31.993 72.8104 32.1925 73.3647 32.1925C73.9412 32.1925 74.3846 32.0152 74.7393 31.6382C75.0941 31.2835 75.2714 30.7957 75.2714 30.2193C75.2714 29.6428 75.0941 29.1551 74.7393 28.8003C74.3846 28.4456 73.919 28.2461 73.3647 28.2461C72.7883 28.2461 72.3448 28.4234 71.9901 28.8003C71.6354 29.1551 71.458 29.6428 71.458 30.2193C71.458 30.8179 71.6354 31.2835 71.9901 31.6382Z" fill="#12C35A"/>
<path d="M84.2941 27.1818C84.8483 27.736 85.1144 28.4899 85.1144 29.4654V33.7444C85.1144 33.8774 85.0479 33.9439 84.9148 33.9439H83.2964C83.1633 33.9439 83.0968 33.8774 83.0968 33.7444V29.7093C83.0968 28.7116 82.5869 28.2016 81.5892 28.2016C81.2788 28.2016 80.9906 28.2681 80.7023 28.4233C80.4141 28.5564 80.1702 28.7559 79.9707 28.9776V33.7444C79.9707 33.8774 79.9042 33.9439 79.7711 33.9439H78.1527C78.0196 33.9439 77.9531 33.8774 77.9531 33.7444V26.7162C77.9531 26.5831 78.0196 26.5166 78.1527 26.5166H79.7711C79.9042 26.5166 79.9707 26.5831 79.9707 26.7162V27.1818C80.2589 26.9379 80.5915 26.7383 80.9684 26.6053C81.3453 26.4501 81.7444 26.3836 82.1656 26.3836C83.0525 26.3614 83.762 26.6275 84.2941 27.1818Z" fill="#12C35A"/>
<path d="M92.9635 32.7244C93.0079 32.8131 93.03 32.8575 93.03 32.8796C93.03 32.924 92.9857 32.9905 92.897 33.0792C92.3427 33.4561 91.8106 33.7221 91.3229 33.8773C90.8351 34.0325 90.2808 34.099 89.7044 34.099C88.884 34.099 88.1746 33.9217 87.5759 33.5891C86.9773 33.2565 86.5117 32.7688 86.1792 32.1923C85.8466 31.5937 85.6914 30.9507 85.6914 30.2413C85.6914 29.4874 85.8466 28.8223 86.1792 28.2237C86.4896 27.6473 86.9552 27.1817 87.5316 26.8491C88.1081 26.5165 88.7732 26.3613 89.527 26.3613C90.6799 26.3613 91.5667 26.7161 92.2097 27.4255C92.8305 28.135 93.1631 29.0662 93.1631 30.2413C93.1631 30.596 93.03 30.7734 92.7418 30.7734H87.7977C87.8863 31.1946 88.1081 31.5272 88.4406 31.8154C88.7732 32.0815 89.1944 32.2145 89.7044 32.2145C90.0369 32.2145 90.3695 32.1702 90.7242 32.0593C91.079 31.9484 91.5002 31.7711 91.9437 31.505C92.0102 31.4607 92.0767 31.4385 92.121 31.4385C92.2097 31.4385 92.2762 31.505 92.3649 31.638L92.9635 32.7244ZM88.4406 28.4011C88.1524 28.6006 87.9307 28.8888 87.8198 29.2436H90.9903C90.8351 28.4676 90.303 28.0907 89.394 28.0907C89.0392 28.0907 88.7288 28.2015 88.4406 28.4011Z" fill="#12C35A"/>
<path d="M98.816 28.7558C98.7717 28.7558 98.7273 28.7558 98.683 28.7336C98.1731 28.5341 97.6853 28.3789 97.2419 28.268C96.7985 28.1794 96.4437 28.1128 96.1777 28.1128C95.6677 28.1128 95.4239 28.268 95.4239 28.6006C95.4239 28.7115 95.4682 28.8223 95.5347 28.8888C95.6012 28.9553 95.7564 29.044 95.956 29.0884L97.641 29.5761C98.3283 29.7757 98.8382 30.0417 99.1708 30.3521C99.5033 30.6625 99.6585 31.1503 99.6585 31.7711C99.6585 32.5027 99.4146 33.0792 98.9269 33.4782C98.4391 33.8995 97.7518 34.099 96.865 34.099C95.7786 34.099 94.6035 33.8552 93.3176 33.3674C93.2289 33.323 93.1846 33.2565 93.1846 33.2122C93.1846 33.19 93.1846 33.1457 93.2067 33.0792L93.6502 31.7932C93.6723 31.7046 93.7389 31.6602 93.8054 31.6602C93.8719 31.6602 93.9162 31.6602 93.9606 31.6824C94.6257 31.9263 95.1578 32.1036 95.6234 32.2145C96.0668 32.3032 96.4881 32.3697 96.865 32.3697C97.4192 32.3697 97.6853 32.2145 97.6853 31.8819C97.6853 31.7489 97.641 31.6602 97.5744 31.5715C97.4858 31.505 97.3306 31.4163 97.1089 31.3498L95.2908 30.8177C94.6257 30.6182 94.1379 30.3743 93.8497 30.0417C93.5615 29.7092 93.4285 29.2657 93.4285 28.7115C93.4285 28.002 93.6723 27.4255 94.1601 27.0043C94.6479 26.583 95.313 26.3613 96.1998 26.3613C97.1532 26.3613 98.1952 26.6052 99.326 27.0708C99.4146 27.1151 99.459 27.1595 99.459 27.226C99.459 27.2703 99.459 27.3147 99.4368 27.3369L98.9712 28.6228C98.9269 28.6893 98.8825 28.7558 98.816 28.7558Z" fill="#12C35A"/>
<path d="M110.101 24.0556V33.7444C110.101 33.8774 110.034 33.9439 109.901 33.9439H108.283C108.15 33.9439 108.083 33.8774 108.083 33.7444V33.3896C107.551 33.8552 106.864 34.0991 106.021 34.0991C105.29 34.0991 104.625 33.9217 104.048 33.567C103.472 33.2123 103.028 32.7467 102.696 32.148C102.385 31.5494 102.208 30.9065 102.208 30.197C102.208 29.4875 102.363 28.8446 102.696 28.2459C103.006 27.6473 103.472 27.1817 104.048 26.827C104.625 26.4723 105.29 26.2949 106.021 26.2949C106.864 26.2949 107.551 26.5388 108.083 27.0044V23.9891C108.083 23.8561 108.15 23.7896 108.283 23.7896H109.901C110.034 23.8339 110.101 23.9004 110.101 24.0556ZM107.529 31.6381C107.906 31.2612 108.083 30.7956 108.083 30.2192C108.083 29.6427 107.906 29.1771 107.529 28.8002C107.152 28.4233 106.709 28.2459 106.177 28.2459C105.645 28.2459 105.179 28.4233 104.824 28.8002C104.447 29.1771 104.27 29.6427 104.27 30.2192C104.27 30.7956 104.447 31.2612 104.824 31.6381C105.201 32.015 105.645 32.1924 106.177 32.1924C106.709 32.1924 107.152 32.015 107.529 31.6381Z" fill="#12C35A"/>
<path d="M112.829 23.7896C113.051 24.0334 113.161 24.3217 113.161 24.6542C113.161 25.009 113.051 25.2972 112.829 25.5189C112.607 25.7628 112.319 25.8736 111.942 25.8736C111.565 25.8736 111.277 25.7628 111.055 25.5189C110.834 25.275 110.723 24.9868 110.723 24.6542C110.723 24.2995 110.834 24.0113 111.055 23.7896C111.277 23.5457 111.565 23.4348 111.942 23.4348C112.319 23.4348 112.607 23.5457 112.829 23.7896ZM112.962 26.694V33.7222C112.962 33.8552 112.895 33.9217 112.762 33.9217H111.144C111.011 33.9217 110.944 33.8552 110.944 33.7222V26.694C110.944 26.5609 111.011 26.4944 111.144 26.4944H112.762C112.895 26.4944 112.962 26.5609 112.962 26.694Z" fill="#12C35A"/>
<path d="M119.103 26.7161L118.925 28.2459C118.925 28.3346 118.881 28.3789 118.836 28.4011C118.792 28.4232 118.703 28.4454 118.637 28.4232C118.482 28.3789 118.26 28.3567 117.972 28.3567C117.551 28.3567 117.151 28.4454 116.797 28.6449C116.42 28.8445 116.132 29.0662 115.91 29.3544V33.7C115.91 33.8552 115.821 33.9438 115.666 33.9438H114.114C113.959 33.9438 113.87 33.8552 113.87 33.7V26.7161C113.87 26.5609 113.959 26.4722 114.114 26.4722H115.666C115.821 26.4722 115.91 26.5609 115.91 26.7161V27.4255C116.198 27.1151 116.553 26.8491 116.974 26.6496C117.395 26.45 117.817 26.3613 118.26 26.3613C118.526 26.3613 118.748 26.3835 118.947 26.4278C119.058 26.45 119.125 26.5387 119.103 26.7161Z" fill="#12C35A"/>
<path d="M126.22 32.7244C126.264 32.8131 126.286 32.8575 126.286 32.8796C126.286 32.924 126.242 32.9905 126.153 33.0792C125.599 33.4561 125.067 33.7221 124.579 33.8773C124.091 34.0325 123.537 34.099 122.96 34.099C122.14 34.099 121.431 33.9217 120.832 33.5891C120.233 33.2565 119.768 32.7688 119.435 32.1923C119.103 31.5937 118.948 30.9507 118.948 30.2413C118.948 29.4874 119.103 28.8223 119.435 28.2237C119.746 27.6473 120.211 27.1817 120.788 26.8491C121.364 26.5165 122.029 26.3613 122.783 26.3613C123.936 26.3613 124.823 26.7161 125.466 27.4255C126.087 28.135 126.419 29.0662 126.419 30.2413C126.419 30.596 126.286 30.7734 125.998 30.7734H121.054C121.142 31.1946 121.364 31.5272 121.697 31.8154C122.029 32.0815 122.451 32.2145 122.96 32.2145C123.293 32.2145 123.626 32.1702 123.98 32.0593C124.335 31.9484 124.756 31.7711 125.2 31.505C125.266 31.4607 125.333 31.4385 125.377 31.4385C125.466 31.4385 125.532 31.505 125.621 31.638L126.22 32.7244ZM121.697 28.4011C121.409 28.6006 121.187 28.8888 121.076 29.2436H124.246C124.091 28.4676 123.559 28.0907 122.65 28.0907C122.295 28.0907 121.985 28.2015 121.697 28.4011Z" fill="#12C35A"/>
<path d="M127.084 28.2682C127.395 27.6696 127.86 27.204 128.437 26.8492C129.013 26.4945 129.678 26.3171 130.41 26.3171C131.142 26.3171 131.785 26.4723 132.361 26.7384C132.938 27.0266 133.448 27.47 133.913 28.0465C133.957 28.0908 133.98 28.1352 133.98 28.1795C133.98 28.2239 133.935 28.2904 133.869 28.379L132.915 29.2437C132.827 29.3324 132.738 29.3546 132.672 29.3546C132.605 29.3546 132.539 29.3102 132.472 29.2437C132.162 28.8668 131.851 28.6008 131.541 28.4456C131.23 28.2904 130.898 28.2017 130.521 28.2017C129.945 28.2017 129.501 28.4012 129.169 28.7781C128.836 29.155 128.681 29.6206 128.681 30.1749C128.681 30.7292 128.836 31.1948 129.169 31.5717C129.501 31.9486 129.945 32.1481 130.521 32.1481C130.898 32.1481 131.23 32.0594 131.541 31.9043C131.851 31.7491 132.162 31.483 132.472 31.1061C132.539 31.0396 132.605 30.9952 132.672 30.9952C132.738 30.9952 132.805 31.0396 132.915 31.1061L133.869 31.9708C133.957 32.0594 133.98 32.126 133.98 32.1703C133.98 32.2146 133.957 32.259 133.913 32.3033C133.448 32.8798 132.938 33.3232 132.361 33.6114C131.785 33.8997 131.142 34.0327 130.41 34.0327C129.678 34.0327 129.013 33.8553 128.437 33.5006C127.86 33.1458 127.417 32.6802 127.084 32.0816C126.774 31.483 126.597 30.84 126.597 30.1306C126.619 29.5098 126.774 28.8668 127.084 28.2682Z" fill="#12C35A"/>
<path d="M140.099 33.2567C140.099 33.3011 140.077 33.3454 140.01 33.3898C139.279 33.8554 138.525 34.0992 137.727 34.0992C136.685 34.0992 135.953 33.8332 135.487 33.3011C135.022 32.769 134.8 32.0817 134.8 31.1948V28.2682H134.201C134.068 28.2682 134.002 28.2017 134.002 28.0687V26.6941C134.002 26.5611 134.068 26.4946 134.201 26.4946H134.8V25.12C134.8 24.9869 134.867 24.9204 134.977 24.9204H136.64C136.773 24.9204 136.84 24.9869 136.84 25.12V26.4946H139.168C139.301 26.4946 139.367 26.5611 139.367 26.6941V28.0687C139.367 28.2017 139.301 28.2682 139.168 28.2682H136.84V30.9731C136.84 31.3722 136.906 31.6826 137.062 31.8821C137.217 32.0817 137.461 32.1925 137.815 32.1925C138.303 32.1925 138.747 32.0595 139.212 31.7491C139.256 31.7269 139.279 31.7269 139.301 31.7269C139.367 31.7269 139.412 31.7713 139.434 31.8378L140.077 33.1015C140.099 33.1902 140.099 33.2346 140.099 33.2567Z" fill="#12C35A"/>
<path d="M29.3544 22.1933C32.8353 22.1933 35.651 19.3775 35.651 15.8967C35.651 12.4158 32.8353 9.6001 29.3544 9.6001C25.8736 9.6001 23.0579 12.4158 23.0579 15.8967C23.0579 19.3775 25.8736 22.1933 29.3544 22.1933ZM29.3544 13.3692C30.7512 13.3692 31.882 14.4999 31.882 15.8967C31.882 17.2935 30.7512 18.402 29.3544 18.402C27.9577 18.402 26.8269 17.2713 26.8269 15.8745C26.8269 14.4777 27.9798 13.3692 29.3544 13.3692Z" fill="white"/>
<path d="M14.6773 22.1933C15.9189 22.1933 16.8723 21.7277 17.5818 21.0182L17.6039 21.4173C17.6261 21.8607 18.003 22.1933 18.4464 22.1933H20.5527C21.0183 22.1933 21.3952 21.8164 21.3952 21.3508V10.4426C21.3952 9.97701 21.0183 9.6001 20.5527 9.6001H18.4464C18.003 9.6001 17.6483 9.93266 17.6039 10.3761L17.5818 10.7752C16.8723 10.0435 15.9189 9.6001 14.6773 9.6001C11.7508 9.6001 8.802 12.4158 8.802 15.8967C8.802 19.3775 11.7286 22.1933 14.6773 22.1933ZM15.0986 13.3692C16.4954 13.3692 17.6261 14.4999 17.6261 15.8967C17.6261 17.2935 16.4732 18.402 15.0986 18.402C13.7018 18.402 12.5711 17.2713 12.5711 15.8745C12.5711 14.4777 13.7018 13.3692 15.0986 13.3692Z" fill="white"/>
<path d="M34.3868 24.2773H31.8815C31.4824 24.2773 31.1277 24.5656 31.0612 24.9646C30.263 29.1106 26.6048 32.2589 22.2371 32.2589C17.8472 32.2589 14.2111 29.1328 13.413 24.9646C13.3465 24.5656 12.9917 24.2773 12.5926 24.2773H10.0651C9.55521 24.2773 9.15613 24.7429 9.24481 25.2307C10.176 31.5716 15.6523 36.4271 22.2371 36.4271C28.8441 36.4271 34.2981 31.5716 35.2293 25.2307C35.2958 24.7429 34.8968 24.2773 34.3868 24.2773Z" fill="white"/>
</svg>
