<svg width="125" height="49" viewBox="0 0 125 49" fill="none" xmlns="http://www.w3.org/2000/svg">
<g clip-path="url(#clip0)">
<g clip-path="url(#clip1)">
<path d="M43.9536 7.81445H52.3899V9.51061H49.0727V19.0455H47.2487V9.51061H43.9462L43.9536 7.81445ZM52.0295 10.9135H53.5888V12.4828H53.6182C53.6697 12.2609 53.7653 12.0469 53.905 11.8408C54.0448 11.6348 54.2139 11.4366 54.4125 11.2702C54.6111 11.0958 54.8318 10.9611 55.0745 10.8501C55.3172 10.7471 55.5673 10.6916 55.8174 10.6916C56.0086 10.6916 56.1483 10.6995 56.2219 10.7074C56.2954 10.7154 56.369 10.7312 56.4499 10.7391V12.467C56.3322 12.4432 56.2145 12.4274 56.0895 12.4115C55.9645 12.3957 55.8468 12.3877 55.7291 12.3877C55.4496 12.3877 55.1848 12.4511 54.9347 12.57C54.6847 12.6889 54.4714 12.8712 54.2875 13.1011C54.1036 13.3388 53.9565 13.6242 53.8462 13.9729C53.7359 14.3217 53.6844 14.718 53.6844 15.1697V19.0376H52.0221L52.0295 10.9135ZM64.0918 19.0455H62.459V17.9121H62.4296C62.2236 18.3243 61.9221 18.6492 61.5176 18.8949C61.113 19.1406 60.7011 19.2675 60.2819 19.2675C59.289 19.2675 58.5682 19.0059 58.1269 18.4749C57.6855 17.9438 57.4649 17.1433 57.4649 16.0733V10.9135H59.1271V15.8989C59.1271 16.6123 59.2522 17.1195 59.5096 17.4128C59.7597 17.706 60.1201 17.8566 60.5761 17.8566C60.9291 17.8566 61.216 17.8012 61.4514 17.6823C61.6867 17.5634 61.878 17.4128 62.0177 17.2146C62.1648 17.0244 62.2678 16.7866 62.334 16.5171C62.4002 16.2477 62.4296 15.9544 62.4296 15.6374V10.9214H64.0918V19.0455ZM66.9236 16.4379C66.975 16.961 67.1589 17.3256 67.4752 17.5396C67.7988 17.7457 68.1813 17.8566 68.6299 17.8566C68.7844 17.8566 68.9609 17.8408 69.1595 17.817C69.3581 17.7932 69.5493 17.7377 69.7185 17.6664C69.895 17.5951 70.0348 17.4841 70.1525 17.3414C70.2628 17.1988 70.3143 17.0165 70.3069 16.7866C70.2996 16.5568 70.2186 16.3666 70.0715 16.2239C69.9244 16.0733 69.7406 15.9623 69.5126 15.8672C69.2845 15.78 69.0271 15.7008 68.7329 15.6374C68.4387 15.574 68.1445 15.5026 67.8429 15.4313C67.534 15.36 67.2325 15.2648 66.9456 15.1618C66.6588 15.0588 66.4013 14.9161 66.1733 14.7338C65.9453 14.5594 65.7615 14.3296 65.6291 14.0522C65.4893 13.7748 65.4231 13.434 65.4231 13.0218C65.4231 12.578 65.5261 12.2134 65.7247 11.9122C65.9233 11.611 66.1807 11.3732 66.4823 11.1909C66.7912 11.0086 67.1295 10.8818 67.5046 10.8025C67.8797 10.7312 68.2401 10.6916 68.5785 10.6916C68.9683 10.6916 69.3434 10.7391 69.6964 10.8263C70.0495 10.9135 70.3731 11.0562 70.66 11.2622C70.9468 11.4604 71.1822 11.7219 71.3734 12.039C71.5646 12.356 71.6823 12.7444 71.7338 13.1962H69.998C69.9171 12.7682 69.7406 12.4749 69.4537 12.3322C69.1669 12.1817 68.8359 12.1103 68.4681 12.1103C68.3504 12.1103 68.2107 12.1182 68.0489 12.142C67.8871 12.1658 67.74 12.2054 67.5929 12.2609C67.4531 12.3164 67.3354 12.4036 67.2325 12.5145C67.1369 12.6255 67.0854 12.7682 67.0854 12.9505C67.0854 13.1724 67.1589 13.3468 67.2987 13.4815C67.4384 13.6163 67.6223 13.7272 67.8503 13.8223C68.0783 13.9095 68.3357 13.9888 68.6299 14.0522C68.9241 14.1156 69.2257 14.1869 69.5346 14.2583C69.8362 14.3296 70.1304 14.4247 70.4246 14.5277C70.7188 14.6308 70.9762 14.7734 71.2042 14.9557C71.4322 15.138 71.6161 15.36 71.7559 15.6294C71.8956 15.8989 71.9692 16.2397 71.9692 16.636C71.9692 17.1195 71.8662 17.5237 71.6602 17.8646C71.4543 18.1975 71.1895 18.4749 70.8659 18.6809C70.5423 18.887 70.1745 19.0455 69.7773 19.1406C69.3802 19.2358 68.983 19.2833 68.5932 19.2833C68.1151 19.2833 67.6738 19.2278 67.2692 19.1089C66.8647 18.99 66.5117 18.8157 66.2175 18.5858C65.9233 18.348 65.6879 18.0548 65.5187 17.706C65.3496 17.3573 65.2613 16.9372 65.2466 16.4537H66.9236V16.4379ZM72.4105 10.9135H73.6682V8.47231H75.3304V10.9135H76.8309V12.253H75.3304V16.5964C75.3304 16.7866 75.3378 16.9452 75.3525 17.0878C75.3672 17.2226 75.404 17.3414 75.4555 17.4366C75.507 17.5317 75.5879 17.603 75.6982 17.6506C75.8085 17.6981 75.9483 17.7219 76.1395 17.7219C76.2572 17.7219 76.3749 17.7219 76.4925 17.714C76.6102 17.706 76.7279 17.6902 76.8456 17.6585V19.0455C76.6617 19.0693 76.4778 19.0852 76.3087 19.1089C76.1321 19.1327 75.9556 19.1406 75.7717 19.1406C75.3304 19.1406 74.9774 19.0931 74.7126 19.0059C74.4478 18.9187 74.2345 18.784 74.0874 18.6096C73.933 18.4352 73.8374 18.2212 73.7785 17.9597C73.727 17.6981 73.6903 17.3969 73.6829 17.064V12.2688H72.4252V10.9135H72.4105ZM78.0077 10.9135H79.5817V12.0152H79.6111C79.8465 11.5397 80.1701 11.2068 80.5893 11.0007C81.0086 10.7946 81.4572 10.6916 81.95 10.6916C82.5458 10.6916 83.0607 10.8025 83.502 11.0324C83.9433 11.2543 84.311 11.5634 84.6052 11.9597C84.8994 12.356 85.1127 12.8157 85.2598 13.3388C85.4069 13.862 85.4805 14.4247 85.4805 15.0191C85.4805 15.566 85.4143 16.0971 85.2819 16.6043C85.1495 17.1195 84.9509 17.5713 84.6861 17.9676C84.4214 18.3639 84.083 18.673 83.6711 18.9108C83.2592 19.1486 82.7812 19.2675 82.2222 19.2675C81.9795 19.2675 81.7367 19.2437 81.494 19.1961C81.2513 19.1486 81.0159 19.0693 80.7953 18.9663C80.5746 18.8632 80.3613 18.7285 80.1775 18.562C79.9862 18.3956 79.8318 18.2054 79.6994 17.9914H79.67V22.0495H78.0077V10.9135ZM83.8182 14.9874C83.8182 14.6228 83.7741 14.2662 83.6858 13.9174C83.5976 13.5687 83.4652 13.2675 83.2887 12.998C83.1121 12.7285 82.8915 12.5145 82.6341 12.356C82.3693 12.1975 82.0677 12.1103 81.7294 12.1103C81.0306 12.1103 80.5011 12.3719 80.148 12.895C79.795 13.4181 79.6185 14.1156 79.6185 14.9874C79.6185 15.3996 79.6626 15.78 79.7582 16.1288C79.8538 16.4775 79.9862 16.7787 80.1775 17.0323C80.3613 17.286 80.582 17.4841 80.8394 17.6268C81.0968 17.7774 81.3984 17.8487 81.7367 17.8487C82.1192 17.8487 82.4355 17.7615 82.7003 17.5951C82.965 17.4286 83.1783 17.2067 83.3475 16.9452C83.5167 16.6757 83.6417 16.3745 83.7153 16.0337C83.7815 15.6929 83.8182 15.3441 83.8182 14.9874ZM86.7529 7.81445H88.4152V9.51061H86.7529V7.81445ZM86.7529 10.9135H88.4152V19.0455H86.7529V10.9135ZM89.9009 7.81445H91.5632V19.0455H89.9009V7.81445ZM96.6602 19.2675C96.0571 19.2675 95.5202 19.1565 95.0495 18.9425C94.5788 18.7285 94.1816 18.4273 93.8506 18.0548C93.527 17.6743 93.2769 17.2226 93.1077 16.6994C92.9386 16.1763 92.8503 15.5977 92.8503 14.9716C92.8503 14.3534 92.9386 13.7827 93.1077 13.2596C93.2769 12.7365 93.527 12.2847 93.8506 11.9042C94.1742 11.5238 94.5788 11.2305 95.0495 11.0165C95.5202 10.8025 96.0571 10.6916 96.6602 10.6916C97.2634 10.6916 97.8003 10.8025 98.271 11.0165C98.7417 11.2305 99.1389 11.5317 99.4699 11.9042C99.7935 12.2847 100.044 12.7365 100.213 13.2596C100.382 13.7827 100.47 14.3534 100.47 14.9716C100.47 15.5977 100.382 16.1763 100.213 16.6994C100.044 17.2226 99.7935 17.6743 99.4699 18.0548C99.1463 18.4352 98.7417 18.7285 98.271 18.9425C97.8003 19.1565 97.2634 19.2675 96.6602 19.2675ZM96.6602 17.8487C97.028 17.8487 97.3516 17.7615 97.6238 17.5951C97.8959 17.4286 98.1166 17.2067 98.2931 16.9372C98.4696 16.6677 98.5946 16.3586 98.6829 16.0178C98.7638 15.677 98.8079 15.3283 98.8079 14.9716C98.8079 14.6228 98.7638 14.282 98.6829 13.9333C98.602 13.5845 98.4696 13.2834 98.2931 13.0139C98.1166 12.7444 97.8959 12.5304 97.6238 12.3639C97.3516 12.1975 97.028 12.1103 96.6602 12.1103C96.2925 12.1103 95.9689 12.1975 95.6967 12.3639C95.4246 12.5304 95.2039 12.7523 95.0274 13.0139C94.8509 13.2834 94.7258 13.5845 94.6376 13.9333C94.5567 14.282 94.5126 14.6228 94.5126 14.9716C94.5126 15.3283 94.5567 15.677 94.6376 16.0178C94.7185 16.3586 94.8509 16.6677 95.0274 16.9372C95.2039 17.2067 95.4246 17.4286 95.6967 17.5951C95.9689 17.7694 96.2925 17.8487 96.6602 17.8487ZM100.956 10.9135H102.213V8.47231H103.876V10.9135H105.376V12.253H103.876V16.5964C103.876 16.7866 103.883 16.9452 103.898 17.0878C103.912 17.2226 103.949 17.3414 104.001 17.4366C104.052 17.5317 104.133 17.603 104.243 17.6506C104.354 17.6981 104.493 17.7219 104.685 17.7219C104.802 17.7219 104.92 17.7219 105.038 17.714C105.155 17.706 105.273 17.6902 105.391 17.6585V19.0455C105.207 19.0693 105.023 19.0852 104.854 19.1089C104.677 19.1327 104.501 19.1406 104.317 19.1406C103.876 19.1406 103.523 19.0931 103.258 19.0059C102.993 18.9187 102.78 18.784 102.633 18.6096C102.478 18.4352 102.383 18.2212 102.324 17.9597C102.272 17.6981 102.235 17.3969 102.228 17.064V12.2688H100.97V10.9135H100.956Z" fill="white"/>
<path d="M32.0397 15.6221L36.3866 14.4094L38.2106 20.449L32.0397 15.6221ZM42.0132 7.81499H34.3933L32.0397 0L29.6861 7.81499L22.0588 7.80706L28.2298 12.634L25.8761 20.449L32.0397 15.6221L35.8496 12.6419L42.0132 7.81499Z" fill="white"/>
</g>
<path d="M23.4367 26.031H0V49.0002H23.4367V26.031Z" fill="#0AC08F"/>
<path d="M48.8279 26.031H25.3912V49.0002H48.8279V26.031Z" fill="#0AC08F"/>
<path d="M74.2172 26.031H50.7805V49.0002H74.2172V26.031Z" fill="#0AC08F"/>
<path d="M99.6084 26.031H76.1716V49.0002H99.6084V26.031Z" fill="#0AC08F"/>
<path d="M125 26.031H101.563V49.0002H125V26.031Z" fill="#E5E5E5"/>
<path d="M113.5 26.0312H101.562V49.0004H113.5V26.0312Z" fill="#0AC08F"/>
<path d="M11.7177 41.5105L15.2805 40.6248L16.7708 45.1216L11.7177 41.5105ZM19.9209 35.698H13.6468L11.7177 29.9067L9.7885 35.698H3.51439L8.59364 39.2877L6.66448 45.079L11.7437 41.4893L14.8678 39.2877L19.9209 35.698Z" fill="white"/>
<path d="M37.1117 41.5105L40.6746 40.6248L42.1649 45.1216L37.1117 41.5105ZM45.315 35.698H39.0408L37.1117 29.9067L35.1825 35.698H28.9084L33.9877 39.2877L32.0585 45.079L37.1378 41.4893L40.2618 39.2877L45.315 35.698Z" fill="white"/>
<path d="M62.5025 41.5105L66.0654 40.6248L67.5557 45.1216L62.5025 41.5105ZM70.7058 35.698H64.4317L62.5025 29.9067L60.5733 35.698H54.2992L59.3785 39.2877L57.4493 45.079L62.5286 41.4893L65.6526 39.2877L70.7058 35.698Z" fill="white"/>
<path d="M87.8893 41.5105L91.4521 40.6248L92.9425 45.1216L87.8893 41.5105ZM96.0925 35.698H89.8184L87.8893 29.9067L85.9601 35.698H79.686L84.7653 39.2877L82.8361 45.079L87.9153 41.4893L91.0394 39.2877L96.0925 35.698Z" fill="white"/>
<path d="M113.283 41.5105L116.846 40.6248L118.337 45.1216L113.283 41.5105ZM121.487 35.698H115.212L113.283 29.9067L111.354 35.698H105.08L110.159 39.2877L108.23 45.079L113.309 41.4893L116.433 39.2877L121.487 35.698Z" fill="white"/>
</g>
<defs>
<clipPath id="clip0">
<rect width="125" height="49" fill="white"/>
</clipPath>
<clipPath id="clip1">
<rect width="83.3333" height="22.05" fill="white" transform="translate(22.0588)"/>
</clipPath>
</defs>
</svg>
